<svg width="48" height="48" viewBox="0 0 48 48" fill="none" xmlns="http://www.w3.org/2000/svg">
<rect width="48" height="48" rx="4.65052" fill="black"/>
<path fill-rule="evenodd" clip-rule="evenodd" d="M21.7906 25.3434C20.9012 27.7129 19.0516 30.2494 16.1211 31.5883C17.7286 30.6933 19.0956 28.9902 19.7578 25.7893C19.9356 24.9298 20.0322 23.9946 20.0794 22.9271C20.1071 22.2993 20.1177 21.6258 20.1177 20.895V6.79162C20.1177 5.99242 20.1177 5.00518 18.3313 5.00518H17.5086V4.81714H25.054V5.00518H24.3958C22.6329 5.00518 22.4213 5.59283 22.4213 6.41553V22.2114C22.4213 23.1181 22.2155 24.2117 21.7906 25.3434Z" fill="white"/>
<path fill-rule="evenodd" clip-rule="evenodd" d="M31.2412 36.3001C30.3476 38.5786 28.5687 40.983 25.798 42.3101C27.5843 41.2333 29.031 39.065 29.4822 34.7417C29.5777 33.826 29.6286 32.8137 29.6286 31.6945V17.5911C29.6286 16.7919 29.6286 15.8046 27.8422 15.8046H27.0195V15.6166H34.5649V15.8046H33.9067C32.1438 15.8046 31.9322 16.3923 31.9322 17.215V33.0108C31.9322 33.9595 31.7069 35.1127 31.2412 36.3001Z" fill="white"/>
<path fill-rule="evenodd" clip-rule="evenodd" d="M39.3798 26.6359C39.3798 26.4713 39.4674 25.8629 40.1528 25.8629C40.7155 25.8629 40.895 26.3917 40.895 26.6359C40.895 26.9308 40.6936 27.3039 40.2078 27.3039C39.4064 27.3039 39.3798 26.8004 39.3798 26.6359Z" fill="white"/>
<path d="M21.7906 25.3434C20.9012 27.7129 19.0516 30.2494 16.1211 31.5883M21.7906 25.3434C22.2155 24.2117 22.4213 23.1181 22.4213 22.2114V6.41553C22.4213 5.59283 22.6329 5.00518 24.3958 5.00518H25.054V4.81714H17.5086V5.00518H18.3313C20.1177 5.00518 20.1177 5.99242 20.1177 6.79162V20.895C20.1177 21.6258 20.1071 22.2993 20.0794 22.9271M21.7906 25.3434C22.7657 26.7478 23.6309 28.0174 24.3438 28.9312C26.059 31.1301 27.8176 33.143 29.4822 34.7417M16.1211 31.5883C17.7286 30.6933 19.0956 28.9902 19.7578 25.7893M16.1211 31.5883C14.6782 32.3917 13.0416 32.544 11.5471 32.544C4.86608 32.544 2.40869 27.9363 2.40869 23.1367C2.40869 19.0721 5.21165 14.9582 10.4336 14.9582C13.7267 14.9582 17.2064 18.9871 20.0794 22.9271M19.7578 25.7893C19.9356 24.9298 20.0322 23.9946 20.0794 22.9271M19.7578 25.7893C15.1438 25.7893 11.9196 30.0041 11.9196 33.9362C11.9196 38.7358 14.377 43.3434 21.058 43.3434C22.624 43.3434 24.3755 43.1314 25.798 42.3101M31.2412 36.3001C30.3476 38.5786 28.5687 40.983 25.798 42.3101M31.2412 36.3001C31.7069 35.1127 31.9322 33.9595 31.9322 33.0108V17.215C31.9322 16.3923 32.1438 15.8046 33.9067 15.8046H34.5649V15.6166H27.0195V15.8046H27.8422C29.6286 15.8046 29.6286 16.7919 29.6286 17.5911V31.6945C29.6286 32.8137 29.5777 33.826 29.4822 34.7417M31.2412 36.3001C31.5556 36.553 31.8643 36.7863 32.1662 36.998C35.1228 39.0714 37.1962 39.6474 39.4233 39.6474C41.6503 39.6474 45.9123 37.8811 45.9123 33.3503C45.9123 28.8195 42.4566 25.8629 40.1528 25.8629M25.798 42.3101C27.5843 41.2333 29.031 39.065 29.4822 34.7417M40.1528 25.8629C39.4674 25.8629 39.3798 26.4713 39.3798 26.6359C39.3798 26.8004 39.4064 27.3039 40.2078 27.3039C40.6936 27.3039 40.895 26.9308 40.895 26.6359C40.895 26.3917 40.7155 25.8629 40.1528 25.8629Z" stroke="white" stroke-width="0.99654"/>
</svg>
