<svg width="39" height="13" viewBox="0 0 39 13" fill="none" xmlns="http://www.w3.org/2000/svg">
<path fill-rule="evenodd" clip-rule="evenodd" d="M16.113 0.00737323C18.9934 0.212311 21.879 1.20094 24.7759 2.97541C25.8993 3.66359 27.1677 4.58126 28.9768 6.01489C30.3435 7.09789 30.8532 7.4819 31.5602 7.9612C33.7335 9.43463 35.742 9.84724 37.156 9.11079C38.0824 8.62823 38.5138 7.81086 38.4188 6.71824C38.374 6.2037 38.237 5.77825 37.9756 5.34202C37.8575 5.145 37.867 5.10431 38.0314 5.1033C38.1556 5.10255 38.2536 5.15249 38.3954 5.28866C38.5735 5.45988 38.7049 5.69059 38.8167 6.02873C39.0759 6.81268 39.0605 7.48356 38.7685 8.12968C38.651 8.38967 38.5873 8.48206 38.3507 8.73606C37.2161 9.95396 35.0344 10.1363 32.7841 9.20122C32.6036 9.12623 32.1951 8.92393 31.8761 8.7517C30.9745 8.26474 30.2605 7.78997 28.5648 6.55005C27.5204 5.78633 26.5118 5.06629 26.0293 4.73981C22.604 2.42269 19.6337 1.16113 16.8685 0.84905C16.2796 0.782562 15.0313 0.800185 14.587 0.881203C12.9544 1.17902 11.8097 1.85648 11.075 2.95977C10.8762 3.2583 10.6117 3.83859 10.5289 4.1581C10.3207 4.96169 10.324 5.88836 10.538 6.69906C10.6684 7.19301 10.9055 7.8189 11.0215 7.97546C11.059 8.02612 11.0907 8.02061 11.4435 7.9021C11.9735 7.72414 12.6973 7.53158 13.1679 7.44336C13.7083 7.34208 14.8542 7.33335 15.2584 7.42743C15.6153 7.5105 15.9699 7.63256 16.1971 7.75059C16.302 7.80512 16.3949 7.84232 16.4035 7.83324C16.412 7.82411 16.3982 7.70081 16.3728 7.5592C16.3159 7.24178 16.3138 6.80196 16.3681 6.58504C16.4603 6.21732 16.7259 5.83366 17.0833 5.55181C17.3209 5.36447 17.7644 5.14725 18.112 5.04799C18.3927 4.96785 18.4662 4.96068 19.0276 4.95853C19.8492 4.9554 20.1907 5.03199 20.8282 5.36228C22.4283 6.19129 23.2064 8.22125 22.6393 10.087C22.4732 10.6332 22.168 11.1512 21.7461 11.6026C20.4992 12.9369 18.4795 13.3388 16.1893 12.7083C14.7947 12.3244 13.4364 11.5841 12.2225 10.5463C11.8561 10.233 11.1994 9.5619 10.8911 9.18561L10.7263 8.98465L10.3786 9.14561C9.3351 9.62862 8.33166 9.93288 7.3262 10.0712C4.80465 10.418 2.5151 9.76687 1.04929 8.28611C0.187586 7.41564 -0.196925 6.363 0.0984095 5.68283C0.292115 5.2367 0.864931 4.78298 1.45133 4.61127C1.74892 4.52412 2.16239 4.53093 2.24858 4.62443C2.30092 4.68118 2.3004 4.68587 2.23546 4.74274C2.19825 4.77529 2.11661 4.8122 2.05402 4.82474C1.88561 4.85846 1.6664 4.9873 1.56974 5.10936C1.4122 5.30834 1.36025 5.48057 1.36053 5.8032C1.36111 6.46754 1.68647 7.14069 2.34554 7.84112C3.74957 9.33331 5.92247 9.78463 8.27996 9.07371C8.8908 8.88953 10.1933 8.40176 10.261 8.33185C10.2737 8.31879 10.1568 8.03768 10.0012 7.7072C9.70114 7.06938 9.50854 6.51901 9.38057 5.93351C9.27553 5.45275 9.24501 4.55471 9.31844 4.1048C9.46969 3.17839 9.85136 2.42917 10.5221 1.74194C11.4041 0.8383 12.686 0.270298 14.2971 0.0692036C14.6847 0.0208276 15.7785 -0.0164075 16.113 0.00737323ZM18.6062 5.20422C18.107 5.28667 17.5873 5.57116 17.2809 5.92976C17.0815 6.16311 16.8927 6.5711 16.8312 6.90129C16.7271 7.4602 16.819 8.22096 17.0113 8.39124C17.0879 8.45916 17.0699 8.54611 16.9751 8.56542C16.8628 8.58836 16.7227 8.52171 16.6263 8.39951C16.4764 8.2093 16.0182 7.9438 15.6045 7.8074C14.9873 7.60393 14.0361 7.66524 13.0305 7.97335C12.4244 8.15903 11.4127 8.60012 11.4132 8.67843C11.4132 8.69169 11.4948 8.8176 11.5944 8.95829C12.7255 10.5559 14.4033 11.7991 16.2152 12.3821C17.7878 12.8881 19.1895 12.8214 20.3551 12.1848C21.4361 11.5945 22.1476 10.5491 22.3221 9.29497C22.381 8.87115 22.3815 8.62755 22.324 8.22028C22.1078 6.68974 21.033 5.48542 19.643 5.21621C19.3666 5.16269 18.891 5.15718 18.6062 5.20422Z" fill="#555555"/>
</svg>
