<svg width="48" height="48" viewBox="0 0 48 48" fill="none" xmlns="http://www.w3.org/2000/svg">
<rect width="48" height="48" rx="12" fill="white"/>
<path fill-rule="evenodd" clip-rule="evenodd" d="M25.0251 5.81397H24.2263C23.3864 5.81398 22.9667 5.95623 22.7522 6.15228C22.545 6.34161 22.4923 6.61572 22.4923 7.0054V22.202C22.4922 23.0754 22.2986 24.1163 21.9047 25.1911C22.8247 26.5169 23.6365 27.7058 24.3068 28.5652C25.8691 30.568 27.4672 32.4077 28.988 33.8984C29.0579 33.1151 29.0952 32.2596 29.0952 31.3254V17.7569C29.0952 17.3609 29.0904 16.9842 28.9067 16.699C28.735 16.4325 28.3734 16.2039 27.542 16.2039H26.5851V15.6918H34.1751V16.2039H33.3765C32.5366 16.2039 32.1168 16.346 31.9023 16.542C31.6952 16.7314 31.6424 17.0055 31.6424 17.3952V32.5919C31.6424 33.4978 31.4341 34.5841 31.0098 35.7018C31.2774 35.9144 31.5399 36.1119 31.7971 36.2923C34.619 38.2712 36.5813 38.8112 38.6838 38.8112C39.7196 38.8112 41.2454 38.3977 42.5093 37.4497C43.7671 36.5064 44.7613 35.038 44.7613 32.9184C44.7613 30.7825 43.947 29.0199 42.8633 27.7917C42.0199 26.8358 41.0232 26.2141 40.131 25.9825C40.2262 26.1495 40.2651 26.3304 40.2652 26.4587C40.2651 26.6351 40.2056 26.8352 40.0702 26.9939C39.931 27.157 39.7192 27.2669 39.4385 27.2669C39.0166 27.2669 38.7599 27.1323 38.6174 26.937C38.482 26.7513 38.4765 26.5447 38.4765 26.4587C38.4765 26.3602 38.501 26.1407 38.626 25.94C38.7499 25.741 38.9667 25.5719 39.3144 25.5516L39.3857 25.5495L39.4962 25.5517C40.6457 25.5967 42.0189 26.3345 43.1114 27.5727C44.2441 28.8565 45.0923 30.6955 45.0923 32.9184C45.0923 35.1577 44.036 36.7185 42.708 37.7145C41.3862 38.7059 39.7906 39.1422 38.6838 39.1423C36.5013 39.1423 34.4739 38.5739 31.607 36.5633C31.3693 36.3966 31.1277 36.2161 30.8826 36.0235C29.9865 38.1821 28.276 40.427 25.6507 41.6858C24.2459 42.4941 22.5295 42.698 21.0152 42.698C17.7599 42.698 15.512 41.5734 14.0814 39.8444C12.6552 38.1207 12.0579 35.8164 12.0579 33.4822C12.0579 33.0916 12.0907 32.6979 12.1537 32.3059C12.0569 32.3074 11.9606 32.3082 11.865 32.3082C8.60972 32.3082 6.36185 31.1836 4.93126 29.4546C3.50501 27.7309 2.90772 25.4265 2.90771 23.0923C2.90773 19.1107 5.65935 15.0586 10.7937 15.0585C12.4422 15.0585 14.1109 16.0638 15.697 17.5136C17.1808 18.87 18.6165 20.6382 19.9256 22.4095C19.9394 21.946 19.945 21.4563 19.945 20.9357V7.36715C19.945 6.97111 19.9402 6.59431 19.7565 6.30907C19.5848 6.04256 19.2232 5.81397 18.3918 5.81397H17.4349V5.30206H25.0251V5.81397ZM21.7605 25.5643C20.8547 27.7877 19.0848 30.1146 16.3406 31.3707C15.1187 32.0495 13.7623 32.2534 12.4899 32.2977C12.4235 32.692 12.3889 33.0886 12.3889 33.4822C12.3889 35.7654 12.9738 37.9863 14.3365 39.6333C15.6949 41.2751 17.843 42.3669 21.0152 42.3669C22.5115 42.3669 24.1615 42.1635 25.4926 41.395C27.139 40.4013 28.5065 38.393 28.9465 34.3198C27.3551 32.7839 25.6789 30.8625 24.0458 28.7688C23.4 27.9409 22.6253 26.812 21.7605 25.5643ZM10.7937 15.3896C5.88039 15.3896 3.23877 19.2529 3.23875 23.0923C3.23876 25.3755 3.82359 27.5965 5.18632 29.2435C6.54474 30.8853 8.6928 31.9772 11.865 31.9772C11.9809 31.9772 12.0974 31.9758 12.2145 31.9736C12.895 28.6564 15.7415 25.551 19.6282 25.48C19.7772 24.7159 19.8618 23.8847 19.9054 22.9413C18.5342 21.0638 17.0265 19.1775 15.4736 17.758C13.9028 16.3222 12.3134 15.3896 10.7937 15.3896ZM19.5587 25.8126C15.9213 25.9186 13.2292 28.8263 12.5539 31.9641C13.7796 31.9151 15.0492 31.711 16.185 31.0786C17.6469 30.2647 18.9144 28.725 19.5587 25.8126Z" fill="black"/>
</svg>
