<svg width="39" height="13" viewBox="0 0 39 13" fill="none" xmlns="http://www.w3.org/2000/svg">
<path fill-rule="evenodd" clip-rule="evenodd" d="M22.887 0.00737323C20.0066 0.212311 17.121 1.20094 14.2241 2.97541C13.1007 3.66359 11.8323 4.58126 10.0232 6.01489C8.65654 7.09789 8.14684 7.4819 7.43983 7.9612C5.26647 9.43463 3.258 9.84724 1.84405 9.11079C0.917579 8.62823 0.48616 7.81086 0.581196 6.71824C0.625968 6.2037 0.762999 5.77825 1.0244 5.34202C1.14247 5.145 1.13295 5.10431 0.968607 5.1033C0.844424 5.10255 0.746366 5.15249 0.604635 5.28866C0.426464 5.45988 0.29511 5.69059 0.183318 6.02873C-0.0759117 6.81268 -0.0605307 7.48356 0.231507 8.12968C0.349037 8.38967 0.4127 8.48206 0.649315 8.73606C1.7839 9.95396 3.96562 10.1363 6.21589 9.20122C6.39635 9.12623 6.80494 8.92393 7.12387 8.7517C8.02546 8.26474 8.73952 7.78997 10.4352 6.55005C11.4796 5.78633 12.4882 5.06629 12.9707 4.73981C16.396 2.42269 19.3663 1.16113 22.1315 0.84905C22.7204 0.782562 23.9687 0.800185 24.413 0.881203C26.0456 1.17902 27.1903 1.85648 27.925 2.95977C28.1238 3.2583 28.3883 3.83859 28.4711 4.1581C28.6793 4.96169 28.676 5.88836 28.462 6.69906C28.3316 7.19301 28.0945 7.8189 27.9785 7.97546C27.941 8.02612 27.9093 8.02061 27.5565 7.9021C27.0265 7.72414 26.3027 7.53158 25.8321 7.44336C25.2917 7.34208 24.1458 7.33335 23.7416 7.42743C23.3847 7.5105 23.0301 7.63256 22.8029 7.75059C22.698 7.80512 22.6051 7.84232 22.5965 7.83324C22.588 7.82411 22.6018 7.70081 22.6272 7.5592C22.6841 7.24178 22.6862 6.80196 22.6319 6.58504C22.5397 6.21732 22.2741 5.83366 21.9167 5.55181C21.6791 5.36447 21.2356 5.14725 20.888 5.04799C20.6073 4.96785 20.5338 4.96068 19.9724 4.95853C19.1508 4.9554 18.8093 5.03199 18.1718 5.36228C16.5717 6.19129 15.7936 8.22125 16.3607 10.087C16.5268 10.6332 16.832 11.1512 17.2539 11.6026C18.5008 12.9369 20.5205 13.3388 22.8107 12.7083C24.2053 12.3244 25.5636 11.5841 26.7775 10.5463C27.1439 10.233 27.8006 9.5619 28.1089 9.18561L28.2737 8.98465L28.6214 9.14561C29.6649 9.62862 30.6683 9.93288 31.6738 10.0712C34.1954 10.418 36.4849 9.76687 37.9507 8.28611C38.8124 7.41564 39.1969 6.363 38.9016 5.68283C38.7079 5.2367 38.1351 4.78298 37.5487 4.61127C37.2511 4.52412 36.8376 4.53093 36.7514 4.62443C36.6991 4.68118 36.6996 4.68587 36.7645 4.74274C36.8017 4.77529 36.8834 4.8122 36.946 4.82474C37.1144 4.85846 37.3336 4.9873 37.4303 5.10936C37.5878 5.30834 37.6397 5.48057 37.6395 5.8032C37.6389 6.46754 37.3135 7.14069 36.6545 7.84112C35.2504 9.33331 33.0775 9.78463 30.72 9.07371C30.1092 8.88953 28.8067 8.40176 28.739 8.33185C28.7263 8.31879 28.8432 8.03768 28.9988 7.7072C29.2989 7.06938 29.4915 6.51901 29.6194 5.93351C29.7245 5.45275 29.755 4.55471 29.6816 4.1048C29.5303 3.17839 29.1486 2.42917 28.4779 1.74194C27.5959 0.8383 26.314 0.270298 24.7029 0.0692036C24.3153 0.0208276 23.2215 -0.0164075 22.887 0.00737323ZM20.3938 5.20422C20.893 5.28667 21.4127 5.57116 21.7191 5.92976C21.9185 6.16311 22.1073 6.5711 22.1688 6.90129C22.2729 7.4602 22.181 8.22096 21.9887 8.39124C21.9121 8.45916 21.9301 8.54611 22.0249 8.56542C22.1372 8.58836 22.2773 8.52171 22.3737 8.39951C22.5236 8.2093 22.9818 7.9438 23.3955 7.8074C24.0127 7.60393 24.9639 7.66524 25.9695 7.97335C26.5756 8.15903 27.5873 8.60012 27.5868 8.67843C27.5868 8.69169 27.5052 8.8176 27.4056 8.95829C26.2745 10.5559 24.5967 11.7991 22.7848 12.3821C21.2122 12.8881 19.8105 12.8214 18.6449 12.1848C17.5639 11.5945 16.8524 10.5491 16.6779 9.29497C16.619 8.87115 16.6185 8.62755 16.676 8.22028C16.8922 6.68974 17.967 5.48542 19.357 5.21621C19.6334 5.16269 20.109 5.15718 20.3938 5.20422Z" fill="#555555"/>
</svg>
