<svg width="290" height="290" viewBox="0 0 290 290" fill="none" xmlns="http://www.w3.org/2000/svg">
<rect width="290" height="290" rx="34" fill="black"/>
<path fill-rule="evenodd" clip-rule="evenodd" d="M151.193 35.126H146.367C141.293 35.126 138.757 35.9855 137.461 37.1699C136.21 38.3138 135.891 39.9699 135.891 42.3242V134.137C135.891 139.414 134.721 145.702 132.341 152.196C137.899 160.206 142.804 167.389 146.854 172.581C156.292 184.682 165.947 195.797 175.136 204.803C175.558 200.07 175.783 194.901 175.783 189.258V107.281C175.783 104.889 175.754 102.613 174.645 100.89C173.607 99.2794 171.423 97.8984 166.399 97.8984H160.618V94.8047H206.475V97.8984H201.649C196.575 97.8985 194.039 98.7571 192.743 99.9414C191.492 101.085 191.173 102.741 191.173 105.096V196.909C191.173 202.383 189.914 208.945 187.351 215.698C188.967 216.983 190.553 218.176 192.107 219.266C209.156 231.222 221.012 234.484 233.715 234.484C239.973 234.484 249.191 231.986 256.827 226.259C264.426 220.559 270.433 211.688 270.433 198.882C270.433 185.977 265.513 175.328 258.966 167.908C253.87 162.133 247.849 158.377 242.458 156.978C243.033 157.987 243.269 159.079 243.269 159.854C243.268 160.92 242.909 162.13 242.091 163.088C241.25 164.073 239.97 164.737 238.274 164.737C235.725 164.737 234.174 163.924 233.313 162.744C232.495 161.623 232.462 160.374 232.462 159.854C232.462 159.26 232.61 157.933 233.365 156.721C234.114 155.519 235.424 154.497 237.524 154.374L237.955 154.361L238.623 154.375C245.568 154.646 253.864 159.104 260.465 166.585C267.308 174.341 272.433 185.452 272.433 198.882C272.433 212.411 266.051 221.841 258.027 227.858C250.041 233.848 240.401 236.484 233.715 236.484C220.529 236.484 208.28 233.05 190.959 220.903C189.523 219.896 188.063 218.806 186.582 217.642C181.169 230.683 170.834 244.246 154.973 251.852C146.486 256.735 136.116 257.967 126.967 257.967C107.299 257.967 93.7183 251.173 85.0752 240.727C76.4584 230.312 72.8497 216.391 72.8496 202.288C72.8496 199.928 73.0482 197.55 73.4287 195.182C72.8434 195.19 72.2618 195.195 71.6846 195.195C52.017 195.195 38.4361 188.401 29.793 177.955C21.1761 167.541 17.5674 153.618 17.5674 139.516C17.5675 115.461 34.1918 90.9787 65.2119 90.9785C75.1714 90.9785 85.2535 97.0523 94.8359 105.812C103.801 114.006 112.474 124.689 120.384 135.391C120.467 132.591 120.501 129.632 120.501 126.486V44.5098C120.501 42.117 120.472 39.8405 119.362 38.1172C118.325 36.5071 116.14 35.126 111.117 35.126H105.336V32.0332H151.193V35.126ZM131.47 154.451C125.997 167.884 115.304 181.942 98.7246 189.531C91.3418 193.632 83.1475 194.864 75.46 195.132C75.0583 197.514 74.8496 199.91 74.8496 202.288C74.8497 216.083 78.3832 229.501 86.6162 239.451C94.8233 249.37 107.801 255.967 126.967 255.967C136.007 255.967 145.976 254.738 154.018 250.095C163.965 244.091 172.226 231.958 174.885 207.349C165.27 198.069 155.144 186.461 145.276 173.812C141.375 168.81 136.694 161.989 131.47 154.451ZM65.2119 92.9785C35.5273 92.9787 19.5675 116.319 19.5674 139.516C19.5674 153.311 23.1008 166.729 31.334 176.68C39.5411 186.599 52.5189 193.195 71.6846 193.195C72.3843 193.195 73.0884 193.187 73.7959 193.174C77.9073 173.132 95.105 154.37 118.587 153.941C119.487 149.325 119.999 144.303 120.262 138.604C111.977 127.26 102.868 115.864 93.4863 107.288C83.9959 98.613 74.3936 92.9785 65.2119 92.9785ZM118.167 155.951C96.1913 156.591 79.9261 174.159 75.8467 193.116C83.2514 192.82 90.9223 191.587 97.7842 187.767C106.617 182.849 114.274 173.547 118.167 155.951Z" fill="white"/>
</svg>
